REM DIRINDEX 1\3,1\2\4,1\2\5,1\2\6
REM DIRNAME cjc137,folder01,folder02,folder03,folder04,folder05
TITLE ""
FILE "116.mp3" MP3
  TRACK 01 AUDIO
    TITLE "4:cjc137_4791"
    INDEX 01 00:00:00
  TRACK 02 AUDIO
    TITLE "0:"
    INDEX 01 00:01:15
  TRACK 03 AUDIO
    TITLE "6:cjc137_4792"
    INDEX 01 00:01:21
  TRACK 04 AUDIO
    TITLE "0:"
    INDEX 01 00:02:06
  TRACK 05 AUDIO
    TITLE "5:cjc137_4793"
    INDEX 01 00:02:14
  TRACK 06 AUDIO
    TITLE "0:"
    INDEX 01 00:03:27
  TRACK 07 AUDIO
    TITLE "4:cjc137_4794"
    INDEX 01 00:04:36
  TRACK 08 AUDIO
    TITLE "0:"
    INDEX 01 00:05:46
  TRACK 09 AUDIO
    TITLE "6:cjc137_4795"
    INDEX 01 00:05:50
  TRACK 10 AUDIO
    TITLE "0:"
    INDEX 01 00:06:51
  TRACK 11 AUDIO
    TITLE "5:cjc137_4796"
    INDEX 01 00:06:69
  TRACK 12 AUDIO
    TITLE "0:"
    INDEX 01 00:08:01
  TRACK 13 AUDIO
    TITLE "4:cjc137_4797"
    INDEX 01 00:09:06
  TRACK 14 AUDIO
    TITLE "0:"
    INDEX 01 00:10:21
  TRACK 15 AUDIO
    TITLE "6:cjc137_4798"
    INDEX 01 00:10:27
  TRACK 16 AUDIO
    TITLE "0:"
    INDEX 01 00:11:48
  TRACK 17 AUDIO
    TITLE "5:cjc137_4799"
    INDEX 01 00:11:52
  TRACK 18 AUDIO
    TITLE "0:"
    INDEX 01 00:12:67
  TRACK 19 AUDIO
    TITLE "4:cjc137_4800"
    INDEX 01 00:14:00
  TRACK 20 AUDIO
    TITLE "0:"
    INDEX 01 00:15:44
  TRACK 21 AUDIO
    TITLE "6:cjc137_4801"
    INDEX 01 00:15:54
  TRACK 22 AUDIO
    TITLE "0:"
    INDEX 01 00:17:04
  TRACK 23 AUDIO
    TITLE "5:cjc137_4802"
    INDEX 01 00:17:08
  TRACK 24 AUDIO
    TITLE "0:"
    INDEX 01 00:18:54
  TRACK 25 AUDIO
    TITLE "4:cjc137_4803"
    INDEX 01 00:19:63
  TRACK 26 AUDIO
    TITLE "0:"
    INDEX 01 00:21:31
  TRACK 27 AUDIO
    TITLE "6:cjc137_4804"
    INDEX 01 00:21:37
  TRACK 28 AUDIO
    TITLE "0:"
    INDEX 01 00:22:50
  TRACK 29 AUDIO
    TITLE "5:cjc137_4805"
    INDEX 01 00:22:56
  TRACK 30 AUDIO
    TITLE "0:"
    INDEX 01 00:24:24
  TRACK 31 AUDIO
    TITLE "4:cjc137_4806"
    INDEX 01 00:25:33
  TRACK 32 AUDIO
    TITLE "0:"
    INDEX 01 00:26:60
  TRACK 33 AUDIO
    TITLE "6:cjc137_4807"
    INDEX 01 00:26:66
  TRACK 34 AUDIO
    TITLE "0:"
    INDEX 01 00:28:00
  TRACK 35 AUDIO
    TITLE "5:cjc137_4808"
    INDEX 01 00:28:06
  TRACK 36 AUDIO
    TITLE "0:"
    INDEX 01 00:29:34
  TRACK 37 AUDIO
    TITLE "4:cjc137_4809"
    INDEX 01 00:30:38
  TRACK 38 AUDIO
    TITLE "0:"
    INDEX 01 00:31:49
  TRACK 39 AUDIO
    TITLE "6:cjc137_4810"
    INDEX 01 00:31:59
  TRACK 40 AUDIO
    TITLE "0:"
    INDEX 01 00:33:07
  TRACK 41 AUDIO
    TITLE "5:cjc137_4811"
    INDEX 01 00:33:11
  TRACK 42 AUDIO
    TITLE "0:"
    INDEX 01 00:34:20
  TRACK 43 AUDIO
    TITLE "4:cjc137_4812"
    INDEX 01 00:35:29
  TRACK 44 AUDIO
    TITLE "0:"
    INDEX 01 00:36:46
  TRACK 45 AUDIO
    TITLE "6:cjc137_4813"
    INDEX 01 00:36:52
  TRACK 46 AUDIO
    TITLE "0:"
    INDEX 01 00:37:44
  TRACK 47 AUDIO
    TITLE "5:cjc137_4814"
    INDEX 01 00:37:50
  TRACK 48 AUDIO
    TITLE "0:"
    INDEX 01 00:38:69
  TRACK 49 AUDIO
    TITLE "4:cjc137_4815"
    INDEX 01 00:40:01
  TRACK 50 AUDIO
    TITLE "0:"
    INDEX 01 00:41:24
  TRACK 51 AUDIO
    TITLE "6:cjc137_4816"
    INDEX 01 00:41:30
  TRACK 52 AUDIO
    TITLE "0:"
    INDEX 01 00:42:33
  TRACK 53 AUDIO
    TITLE "5:cjc137_4817"
    INDEX 01 00:42:37
  TRACK 54 AUDIO
    TITLE "0:"
    INDEX 01 00:43:60
  TRACK 55 AUDIO
    TITLE "4:cjc137_4818"
    INDEX 01 00:44:67
  TRACK 56 AUDIO
    TITLE "0:"
    INDEX 01 00:46:07
  TRACK 57 AUDIO
    TITLE "6:cjc137_4819"
    INDEX 01 00:46:11
  TRACK 58 AUDIO
    TITLE "0:"
    INDEX 01 00:47:28
  TRACK 59 AUDIO
    TITLE "5:cjc137_4820"
    INDEX 01 00:47:32
  TRACK 60 AUDIO
    TITLE "0:"
    INDEX 01 00:48:48
  TRACK 61 AUDIO
    TITLE "4:cjc137_4821"
    INDEX 01 00:49:55
  TRACK 62 AUDIO
    TITLE "0:"
    INDEX 01 00:51:07
  TRACK 63 AUDIO
    TITLE "6:cjc137_4822"
    INDEX 01 00:51:11
  TRACK 64 AUDIO
    TITLE "0:"
    INDEX 01 00:52:47
  TRACK 65 AUDIO
    TITLE "5:cjc137_4823"
    INDEX 01 00:52:51
  TRACK 66 AUDIO
    TITLE "0:"
    INDEX 01 00:54:01
  TRACK 67 AUDIO
    TITLE "4:cjc137_4824"
    INDEX 01 00:55:10
  TRACK 68 AUDIO
    TITLE "0:"
    INDEX 01 00:56:24
  TRACK 69 AUDIO
    TITLE "6:cjc137_4825"
    INDEX 01 00:56:29
  TRACK 70 AUDIO
    TITLE "0:"
    INDEX 01 00:57:27
  TRACK 71 AUDIO
    TITLE "5:cjc137_4826"
    INDEX 01 00:57:31
  TRACK 72 AUDIO
    TITLE "0:"
    INDEX 01 00:58:44
  TRACK 73 AUDIO
    TITLE "4:cjc137_4827"
    INDEX 01 00:59:53
  TRACK 74 AUDIO
    TITLE "0:"
    INDEX 01 01:00:74
  TRACK 75 AUDIO
    TITLE "6:cjc137_4828"
    INDEX 01 01:01:01
  TRACK 76 AUDIO
    TITLE "0:"
    INDEX 01 01:02:24
  TRACK 77 AUDIO
    TITLE "5:cjc137_4829"
    INDEX 01 01:02:30
  TRACK 78 AUDIO
    TITLE "0:"
    INDEX 01 01:03:49
  TRACK 79 AUDIO
    TITLE "4:cjc137_4830"
    INDEX 01 01:04:56
  TRACK 80 AUDIO
    TITLE "0:"
    INDEX 01 01:05:64
  TRACK 81 AUDIO
    TITLE "6:cjc137_4831"
    INDEX 01 01:05:69
  TRACK 82 AUDIO
    TITLE "0:"
    INDEX 01 01:07:06
  TRACK 83 AUDIO
    TITLE "5:cjc137_4832"
    INDEX 01 01:07:12
  TRACK 84 AUDIO
    TITLE "0:"
    INDEX 01 01:08:19
